<mxfile host="65bd71144e">
    <diagram id="tleSVCQAscfQKBhsg7C9" name="Page-1">
        <mxGraphModel dx="867" dy="602" grid="1" gridSize="10" guides="1" tooltips="1" connect="1" arrows="1" fold="1" page="1" pageScale="1" pageWidth="850" pageHeight="1100" math="0" shadow="0">
            <root>
                <mxCell id="0"/>
                <mxCell id="1" parent="0"/>
                <mxCell id="2" value="Overview" style="swimlane;fontStyle=0;childLayout=stackLayout;horizontal=1;startSize=30;horizontalStack=0;resizeParent=1;resizeParentMax=0;resizeLast=0;collapsible=1;marginBottom=0;whiteSpace=wrap;html=1;" vertex="1" parent="1">
                    <mxGeometry x="40" y="41" width="320" height="120" as="geometry"/>
                </mxCell>
                <mxCell id="3" value="The &lt;code&gt;Player&lt;/code&gt; class represents a player, including their name, visual representation (icon), game pieces, and certain game states. It manages where pieces are located (out bar, end bar) and whether the player has moved their pieces to the end." style="text;strokeColor=none;fillColor=none;align=left;verticalAlign=middle;spacingLeft=4;spacingRight=4;overflow=hidden;points=[[0,0.5],[1,0.5]];portConstraint=eastwest;rotatable=0;whiteSpace=wrap;html=1;" vertex="1" parent="2">
                    <mxGeometry y="30" width="320" height="90" as="geometry"/>
                </mxCell>
                <mxCell id="6" value="&lt;strong&gt;Private Properties&lt;/strong&gt;:" style="swimlane;fontStyle=0;childLayout=stackLayout;horizontal=1;startSize=30;horizontalStack=0;resizeParent=1;resizeParentMax=0;resizeLast=0;collapsible=1;marginBottom=0;whiteSpace=wrap;html=1;" vertex="1" parent="1">
                    <mxGeometry x="40" y="200" width="160" height="240" as="geometry"/>
                </mxCell>
                <mxCell id="7" value="&lt;code&gt;_outBar&lt;/code&gt;: An array that stores the player's pieces that are currently &quot;out&quot; of the game area." style="text;strokeColor=none;fillColor=none;align=left;verticalAlign=middle;spacingLeft=4;spacingRight=4;overflow=hidden;points=[[0,0.5],[1,0.5]];portConstraint=eastwest;rotatable=0;whiteSpace=wrap;html=1;" vertex="1" parent="6">
                    <mxGeometry y="30" width="160" height="70" as="geometry"/>
                </mxCell>
                <mxCell id="8" value="&lt;code&gt;_endBar&lt;/code&gt;: An array that stores the player's pieces that are in the end area." style="text;strokeColor=none;fillColor=none;align=left;verticalAlign=middle;spacingLeft=4;spacingRight=4;overflow=hidden;points=[[0,0.5],[1,0.5]];portConstraint=eastwest;rotatable=0;whiteSpace=wrap;html=1;" vertex="1" parent="6">
                    <mxGeometry y="100" width="160" height="70" as="geometry"/>
                </mxCell>
                <mxCell id="9" value="&lt;code&gt;_inTheEnd&lt;/code&gt;: A boolean that indicates whether the player has all their pieces in the end area." style="text;strokeColor=none;fillColor=none;align=left;verticalAlign=middle;spacingLeft=4;spacingRight=4;overflow=hidden;points=[[0,0.5],[1,0.5]];portConstraint=eastwest;rotatable=0;whiteSpace=wrap;html=1;" vertex="1" parent="6">
                    <mxGeometry y="170" width="160" height="70" as="geometry"/>
                </mxCell>
                <mxCell id="10" value="Constructor" style="swimlane;fontStyle=0;childLayout=stackLayout;horizontal=1;startSize=30;horizontalStack=0;resizeParent=1;resizeParentMax=0;resizeLast=0;collapsible=1;marginBottom=0;whiteSpace=wrap;html=1;" vertex="1" parent="1">
                    <mxGeometry x="240" y="200" width="160" height="360" as="geometry"/>
                </mxCell>
                <mxCell id="11" value="&lt;code&gt;_name&lt;/code&gt;: The name of the player." style="text;strokeColor=none;fillColor=none;align=left;verticalAlign=middle;spacingLeft=4;spacingRight=4;overflow=hidden;points=[[0,0.5],[1,0.5]];portConstraint=eastwest;rotatable=0;whiteSpace=wrap;html=1;" vertex="1" parent="10">
                    <mxGeometry y="30" width="160" height="30" as="geometry"/>
                </mxCell>
                <mxCell id="12" value="&lt;code&gt;_icon&lt;/code&gt;: A string representing the visual icon for the player." style="text;strokeColor=none;fillColor=none;align=left;verticalAlign=middle;spacingLeft=4;spacingRight=4;overflow=hidden;points=[[0,0.5],[1,0.5]];portConstraint=eastwest;rotatable=0;whiteSpace=wrap;html=1;" vertex="1" parent="10">
                    <mxGeometry y="60" width="160" height="60" as="geometry"/>
                </mxCell>
                <mxCell id="13" value="&lt;code&gt;_outBarIdx&lt;/code&gt;: An identifier for the out bar (likely for UI purposes)." style="text;strokeColor=none;fillColor=none;align=left;verticalAlign=middle;spacingLeft=4;spacingRight=4;overflow=hidden;points=[[0,0.5],[1,0.5]];portConstraint=eastwest;rotatable=0;whiteSpace=wrap;html=1;" vertex="1" parent="10">
                    <mxGeometry y="120" width="160" height="60" as="geometry"/>
                </mxCell>
                <mxCell id="14" value="&lt;code&gt;_endBarIdx&lt;/code&gt;: An identifier for the end bar (also for UI)." style="text;strokeColor=none;fillColor=none;align=left;verticalAlign=middle;spacingLeft=4;spacingRight=4;overflow=hidden;points=[[0,0.5],[1,0.5]];portConstraint=eastwest;rotatable=0;whiteSpace=wrap;html=1;" vertex="1" parent="10">
                    <mxGeometry y="180" width="160" height="60" as="geometry"/>
                </mxCell>
                <mxCell id="15" value="&lt;code&gt;_pieceColor&lt;/code&gt;: The color of the player's pieces." style="text;strokeColor=none;fillColor=none;align=left;verticalAlign=middle;spacingLeft=4;spacingRight=4;overflow=hidden;points=[[0,0.5],[1,0.5]];portConstraint=eastwest;rotatable=0;whiteSpace=wrap;html=1;" vertex="1" parent="10">
                    <mxGeometry y="240" width="160" height="60" as="geometry"/>
                </mxCell>
                <mxCell id="16" value="&lt;code&gt;_pieceBorderColor&lt;/code&gt;: The border color of the player's pieces." style="text;strokeColor=none;fillColor=none;align=left;verticalAlign=middle;spacingLeft=4;spacingRight=4;overflow=hidden;points=[[0,0.5],[1,0.5]];portConstraint=eastwest;rotatable=0;whiteSpace=wrap;html=1;" vertex="1" parent="10">
                    <mxGeometry y="300" width="160" height="60" as="geometry"/>
                </mxCell>
                <mxCell id="17" value="Static Methods" style="swimlane;fontStyle=0;childLayout=stackLayout;horizontal=1;startSize=30;horizontalStack=0;resizeParent=1;resizeParentMax=0;resizeLast=0;collapsible=1;marginBottom=0;whiteSpace=wrap;html=1;" vertex="1" parent="1">
                    <mxGeometry x="440" y="200" width="160" height="200" as="geometry"/>
                </mxCell>
                <mxCell id="18" value="&lt;strong&gt;&lt;code&gt;public static new&lt;/code&gt;&lt;/strong&gt;: A factory method that creates and returns a new instance of the &lt;code&gt;Player&lt;/code&gt; class with default values (empty strings for all properties). This can be useful for initializing new players in a game." style="text;strokeColor=none;fillColor=none;align=left;verticalAlign=middle;spacingLeft=4;spacingRight=4;overflow=hidden;points=[[0,0.5],[1,0.5]];portConstraint=eastwest;rotatable=0;whiteSpace=wrap;html=1;" vertex="1" parent="17">
                    <mxGeometry y="30" width="160" height="170" as="geometry"/>
                </mxCell>
                <mxCell id="21" value="Getters and Setters" style="swimlane;fontStyle=0;childLayout=stackLayout;horizontal=1;startSize=30;horizontalStack=0;resizeParent=1;resizeParentMax=0;resizeLast=0;collapsible=1;marginBottom=0;whiteSpace=wrap;html=1;" vertex="1" parent="1">
                    <mxGeometry x="640" y="200" width="160" height="400" as="geometry"/>
                </mxCell>
                <mxCell id="22" value="&lt;code&gt;&lt;strong&gt;Basic Properties&lt;/strong&gt;:&lt;br&gt;name&lt;/code&gt;, &lt;code&gt;icon&lt;/code&gt;, &lt;code&gt;outBarIdx&lt;/code&gt;, &lt;code&gt;endBarIdx&lt;/code&gt;, &lt;code&gt;pieceColor&lt;/code&gt;, &lt;code&gt;pieceBorderColor&lt;/code&gt;: Read-only properties that return the corresponding private values." style="text;strokeColor=none;fillColor=none;align=left;verticalAlign=middle;spacingLeft=4;spacingRight=4;overflow=hidden;points=[[0,0.5],[1,0.5]];portConstraint=eastwest;rotatable=0;whiteSpace=wrap;html=1;" vertex="1" parent="21">
                    <mxGeometry y="30" width="160" height="120" as="geometry"/>
                </mxCell>
                <mxCell id="23" value="&lt;code&gt;&lt;strong&gt;Out Bar and End Bar&lt;/strong&gt;:&lt;br&gt;outBar&lt;/code&gt; and &lt;code&gt;endBar&lt;/code&gt;: These arrays can be accessed and modified through their respective getters and setters, allowing the game to update the state of the player's pieces as they move." style="text;strokeColor=none;fillColor=none;align=left;verticalAlign=middle;spacingLeft=4;spacingRight=4;overflow=hidden;points=[[0,0.5],[1,0.5]];portConstraint=eastwest;rotatable=0;whiteSpace=wrap;html=1;" vertex="1" parent="21">
                    <mxGeometry y="150" width="160" height="130" as="geometry"/>
                </mxCell>
                <mxCell id="24" value="&lt;code&gt;&lt;strong&gt;Game State&lt;/strong&gt;:&lt;br&gt;inTheEnd&lt;/code&gt;: A boolean that indicates whether the player has moved all their pieces into the end area. This can be updated through its setter." style="text;strokeColor=none;fillColor=none;align=left;verticalAlign=middle;spacingLeft=4;spacingRight=4;overflow=hidden;points=[[0,0.5],[1,0.5]];portConstraint=eastwest;rotatable=0;whiteSpace=wrap;html=1;" vertex="1" parent="21">
                    <mxGeometry y="280" width="160" height="120" as="geometry"/>
                </mxCell>
                <mxCell id="25" value="Cloning Method" style="swimlane;fontStyle=0;childLayout=stackLayout;horizontal=1;startSize=30;horizontalStack=0;resizeParent=1;resizeParentMax=0;resizeLast=0;collapsible=1;marginBottom=0;whiteSpace=wrap;html=1;" vertex="1" parent="1">
                    <mxGeometry x="40" y="480" width="160" height="360" as="geometry"/>
                </mxCell>
                <mxCell id="26" value="&lt;strong&gt;&lt;code&gt;public clone()&lt;/code&gt;&lt;/strong&gt;: This method creates and returns a new instance of the &lt;code&gt;Player&lt;/code&gt; class that is a copy of the current player. It preserves the player's properties and states:" style="text;strokeColor=none;fillColor=none;align=left;verticalAlign=middle;spacingLeft=4;spacingRight=4;overflow=hidden;points=[[0,0.5],[1,0.5]];portConstraint=eastwest;rotatable=0;whiteSpace=wrap;html=1;" vertex="1" parent="25">
                    <mxGeometry y="30" width="160" height="120" as="geometry"/>
                </mxCell>
                <mxCell id="27" value="The player's name, icon, out bar index, end bar index, piece color, and border color are copied directly." style="text;strokeColor=none;fillColor=none;align=left;verticalAlign=middle;spacingLeft=4;spacingRight=4;overflow=hidden;points=[[0,0.5],[1,0.5]];portConstraint=eastwest;rotatable=0;whiteSpace=wrap;html=1;" vertex="1" parent="25">
                    <mxGeometry y="150" width="160" height="80" as="geometry"/>
                </mxCell>
                <mxCell id="28" value="The contents of the &lt;code&gt;outBar&lt;/code&gt; and &lt;code&gt;endBar&lt;/code&gt; arrays are shallow copied to ensure the new player has its own separate arrays." style="text;strokeColor=none;fillColor=none;align=left;verticalAlign=middle;spacingLeft=4;spacingRight=4;overflow=hidden;points=[[0,0.5],[1,0.5]];portConstraint=eastwest;rotatable=0;whiteSpace=wrap;html=1;" vertex="1" parent="25">
                    <mxGeometry y="230" width="160" height="90" as="geometry"/>
                </mxCell>
                <mxCell id="29" value="The &lt;code&gt;inTheEnd&lt;/code&gt; state is copied as well." style="text;strokeColor=none;fillColor=none;align=left;verticalAlign=middle;spacingLeft=4;spacingRight=4;overflow=hidden;points=[[0,0.5],[1,0.5]];portConstraint=eastwest;rotatable=0;whiteSpace=wrap;html=1;" vertex="1" parent="25">
                    <mxGeometry y="320" width="160" height="40" as="geometry"/>
                </mxCell>
                <mxCell id="30" value="Summary" style="swimlane;fontStyle=0;childLayout=stackLayout;horizontal=1;startSize=30;horizontalStack=0;resizeParent=1;resizeParentMax=0;resizeLast=0;collapsible=1;marginBottom=0;whiteSpace=wrap;html=1;" vertex="1" parent="1">
                    <mxGeometry x="240" y="600" width="360" height="160" as="geometry"/>
                </mxCell>
                <mxCell id="31" value="The &lt;code&gt;Player&lt;/code&gt; class provides a structured way to represent a player in a board game. It manages player-specific attributes and allows for the easy duplication of player instances through the &lt;code&gt;clone&lt;/code&gt; method. This structure helps in maintaining clear game state management and player interactions, such as moving pieces in the game." style="text;strokeColor=none;fillColor=none;align=left;verticalAlign=middle;spacingLeft=4;spacingRight=4;overflow=hidden;points=[[0,0.5],[1,0.5]];portConstraint=eastwest;rotatable=0;whiteSpace=wrap;html=1;" vertex="1" parent="30">
                    <mxGeometry y="30" width="360" height="130" as="geometry"/>
                </mxCell>
            </root>
        </mxGraphModel>
    </diagram>
</mxfile>